<mxfile host="app.diagrams.net" agent="Mozilla/5.0 (Windows NT 10.0; Win64; x64) AppleWebKit/537.36 (KHTML, like Gecko) Chrome/134.0.0.0 Safari/537.36 Edg/134.0.0.0" version="26.1.0">
  <diagram name="第 1 页" id="cTWxbgxD7N5LHfKa1-dM">
    <mxGraphModel dx="1460" dy="976" grid="1" gridSize="10" guides="1" tooltips="1" connect="1" arrows="1" fold="1" page="1" pageScale="1" pageWidth="827" pageHeight="1169" math="0" shadow="0">
      <root>
        <mxCell id="0" />
        <mxCell id="1" parent="0" />
        <mxCell id="bbCFtQkSoRX4-R00seL9-66" style="edgeStyle=orthogonalEdgeStyle;rounded=0;orthogonalLoop=1;jettySize=auto;html=1;exitX=1;exitY=0.5;exitDx=0;exitDy=0;entryX=0;entryY=0.5;entryDx=0;entryDy=0;" edge="1" parent="1" source="bbCFtQkSoRX4-R00seL9-43" target="bbCFtQkSoRX4-R00seL9-45">
          <mxGeometry relative="1" as="geometry" />
        </mxCell>
        <mxCell id="bbCFtQkSoRX4-R00seL9-67" style="edgeStyle=orthogonalEdgeStyle;rounded=0;orthogonalLoop=1;jettySize=auto;html=1;exitX=1;exitY=0.5;exitDx=0;exitDy=0;entryX=0;entryY=0.5;entryDx=0;entryDy=0;" edge="1" parent="1" source="bbCFtQkSoRX4-R00seL9-43" target="bbCFtQkSoRX4-R00seL9-47">
          <mxGeometry relative="1" as="geometry" />
        </mxCell>
        <mxCell id="bbCFtQkSoRX4-R00seL9-43" value="(PC端)鼠标输入" style="rounded=0;whiteSpace=wrap;html=1;" vertex="1" parent="1">
          <mxGeometry x="320" y="567.5" width="90" height="50" as="geometry" />
        </mxCell>
        <mxCell id="bbCFtQkSoRX4-R00seL9-44" style="edgeStyle=entityRelationEdgeStyle;rounded=0;orthogonalLoop=1;jettySize=auto;html=1;startArrow=none;endArrow=none;segment=10;curved=1;sourcePerimeterSpacing=0;targetPerimeterSpacing=0;entryX=0;entryY=0.5;entryDx=0;entryDy=0;" edge="1" parent="1" source="bbCFtQkSoRX4-R00seL9-45" target="bbCFtQkSoRX4-R00seL9-54">
          <mxGeometry relative="1" as="geometry" />
        </mxCell>
        <mxCell id="bbCFtQkSoRX4-R00seL9-70" style="edgeStyle=entityRelationEdgeStyle;rounded=0;orthogonalLoop=1;jettySize=auto;html=1;startArrow=none;endArrow=none;segment=10;curved=1;sourcePerimeterSpacing=0;targetPerimeterSpacing=0;entryX=0;entryY=0.5;entryDx=0;entryDy=0;" edge="1" parent="1" source="bbCFtQkSoRX4-R00seL9-45" target="bbCFtQkSoRX4-R00seL9-57">
          <mxGeometry relative="1" as="geometry">
            <mxPoint x="570" y="590" as="targetPoint" />
            <Array as="points">
              <mxPoint x="570" y="580" />
              <mxPoint x="570" y="580" />
            </Array>
          </mxGeometry>
        </mxCell>
        <mxCell id="bbCFtQkSoRX4-R00seL9-80" style="edgeStyle=entityRelationEdgeStyle;rounded=0;orthogonalLoop=1;jettySize=auto;html=1;startArrow=none;endArrow=none;segment=10;curved=1;sourcePerimeterSpacing=0;targetPerimeterSpacing=0;exitX=1;exitY=0.5;exitDx=0;exitDy=0;entryX=0;entryY=0.5;entryDx=0;entryDy=0;" edge="1" parent="1" source="bbCFtQkSoRX4-R00seL9-45" target="bbCFtQkSoRX4-R00seL9-79">
          <mxGeometry relative="1" as="geometry" />
        </mxCell>
        <mxCell id="bbCFtQkSoRX4-R00seL9-45" value="点击" style="whiteSpace=wrap;html=1;rounded=1;arcSize=50;align=center;verticalAlign=middle;strokeWidth=1;autosize=1;spacing=4;treeFolding=1;treeMoving=1;newEdgeStyle={&quot;edgeStyle&quot;:&quot;entityRelationEdgeStyle&quot;,&quot;startArrow&quot;:&quot;none&quot;,&quot;endArrow&quot;:&quot;none&quot;,&quot;segment&quot;:10,&quot;curved&quot;:1,&quot;sourcePerimeterSpacing&quot;:0,&quot;targetPerimeterSpacing&quot;:0};" vertex="1" parent="1">
          <mxGeometry x="450" y="547.5" width="70" height="30" as="geometry" />
        </mxCell>
        <mxCell id="bbCFtQkSoRX4-R00seL9-69" style="edgeStyle=entityRelationEdgeStyle;rounded=0;orthogonalLoop=1;jettySize=auto;html=1;startArrow=none;endArrow=none;segment=10;curved=1;sourcePerimeterSpacing=0;targetPerimeterSpacing=0;entryX=0;entryY=0.5;entryDx=0;entryDy=0;" edge="1" parent="1" source="bbCFtQkSoRX4-R00seL9-47" target="bbCFtQkSoRX4-R00seL9-55">
          <mxGeometry relative="1" as="geometry" />
        </mxCell>
        <mxCell id="bbCFtQkSoRX4-R00seL9-86" style="edgeStyle=entityRelationEdgeStyle;rounded=0;orthogonalLoop=1;jettySize=auto;html=1;startArrow=none;endArrow=none;segment=10;curved=1;sourcePerimeterSpacing=0;targetPerimeterSpacing=0;exitX=1;exitY=0.5;exitDx=0;exitDy=0;entryX=0;entryY=0.5;entryDx=0;entryDy=0;" edge="1" parent="1" source="bbCFtQkSoRX4-R00seL9-47" target="bbCFtQkSoRX4-R00seL9-71">
          <mxGeometry relative="1" as="geometry" />
        </mxCell>
        <mxCell id="bbCFtQkSoRX4-R00seL9-47" value="滑动" style="whiteSpace=wrap;html=1;rounded=1;arcSize=50;align=center;verticalAlign=middle;strokeWidth=1;autosize=1;spacing=4;treeFolding=1;treeMoving=1;newEdgeStyle={&quot;edgeStyle&quot;:&quot;entityRelationEdgeStyle&quot;,&quot;startArrow&quot;:&quot;none&quot;,&quot;endArrow&quot;:&quot;none&quot;,&quot;segment&quot;:10,&quot;curved&quot;:1,&quot;sourcePerimeterSpacing&quot;:0,&quot;targetPerimeterSpacing&quot;:0};" vertex="1" parent="1">
          <mxGeometry x="450" y="680" width="70" height="30" as="geometry" />
        </mxCell>
        <mxCell id="bbCFtQkSoRX4-R00seL9-54" value="按钮控制预设位置移动" style="shape=ext;double=1;rounded=0;whiteSpace=wrap;html=1;" vertex="1" parent="1">
          <mxGeometry x="570" y="507.5" width="130" height="40" as="geometry" />
        </mxCell>
        <mxCell id="bbCFtQkSoRX4-R00seL9-55" value="自由调整物体位置" style="shape=ext;double=1;rounded=0;whiteSpace=wrap;html=1;" vertex="1" parent="1">
          <mxGeometry x="570" y="680" width="130" height="40" as="geometry" />
        </mxCell>
        <mxCell id="bbCFtQkSoRX4-R00seL9-57" value="触发特定交互物体" style="shape=ext;double=1;rounded=0;whiteSpace=wrap;html=1;" vertex="1" parent="1">
          <mxGeometry x="570" y="560" width="130" height="40" as="geometry" />
        </mxCell>
        <mxCell id="bbCFtQkSoRX4-R00seL9-58" value="&lt;font style=&quot;font-size: 24px;&quot;&gt;Game&lt;/font&gt;" style="rounded=0;whiteSpace=wrap;html=1;" vertex="1" parent="1">
          <mxGeometry x="730" y="472.5" width="170" height="325" as="geometry" />
        </mxCell>
        <mxCell id="bbCFtQkSoRX4-R00seL9-60" style="edgeStyle=orthogonalEdgeStyle;rounded=0;orthogonalLoop=1;jettySize=auto;html=1;exitX=1;exitY=0.5;exitDx=0;exitDy=0;entryX=0;entryY=0.5;entryDx=0;entryDy=0;" edge="1" parent="1" source="bbCFtQkSoRX4-R00seL9-62" target="bbCFtQkSoRX4-R00seL9-43">
          <mxGeometry relative="1" as="geometry" />
        </mxCell>
        <mxCell id="bbCFtQkSoRX4-R00seL9-83" style="edgeStyle=orthogonalEdgeStyle;rounded=0;orthogonalLoop=1;jettySize=auto;html=1;exitX=1;exitY=0.5;exitDx=0;exitDy=0;entryX=0;entryY=0.5;entryDx=0;entryDy=0;" edge="1" parent="1" source="bbCFtQkSoRX4-R00seL9-62" target="bbCFtQkSoRX4-R00seL9-82">
          <mxGeometry relative="1" as="geometry" />
        </mxCell>
        <mxCell id="bbCFtQkSoRX4-R00seL9-62" value="&lt;font style=&quot;font-size: 24px;&quot;&gt;User&lt;/font&gt;" style="rounded=0;whiteSpace=wrap;html=1;" vertex="1" parent="1">
          <mxGeometry x="100" y="470" width="170" height="325" as="geometry" />
        </mxCell>
        <mxCell id="bbCFtQkSoRX4-R00seL9-63" style="edgeStyle=orthogonalEdgeStyle;rounded=0;orthogonalLoop=1;jettySize=auto;html=1;entryX=0.006;entryY=0.172;entryDx=0;entryDy=0;entryPerimeter=0;" edge="1" parent="1" source="bbCFtQkSoRX4-R00seL9-54" target="bbCFtQkSoRX4-R00seL9-58">
          <mxGeometry relative="1" as="geometry" />
        </mxCell>
        <mxCell id="bbCFtQkSoRX4-R00seL9-71" value="拖放磁场等控件" style="shape=ext;double=1;rounded=0;whiteSpace=wrap;html=1;" vertex="1" parent="1">
          <mxGeometry x="570" y="740" width="130" height="40" as="geometry" />
        </mxCell>
        <mxCell id="bbCFtQkSoRX4-R00seL9-74" style="edgeStyle=orthogonalEdgeStyle;rounded=0;orthogonalLoop=1;jettySize=auto;html=1;exitX=1;exitY=0.5;exitDx=0;exitDy=0;entryX=-0.002;entryY=0.333;entryDx=0;entryDy=0;entryPerimeter=0;" edge="1" parent="1" source="bbCFtQkSoRX4-R00seL9-57" target="bbCFtQkSoRX4-R00seL9-58">
          <mxGeometry relative="1" as="geometry" />
        </mxCell>
        <mxCell id="bbCFtQkSoRX4-R00seL9-81" style="edgeStyle=orthogonalEdgeStyle;rounded=0;orthogonalLoop=1;jettySize=auto;html=1;exitX=1;exitY=0.5;exitDx=0;exitDy=0;" edge="1" parent="1" source="bbCFtQkSoRX4-R00seL9-79">
          <mxGeometry relative="1" as="geometry">
            <mxPoint x="730" y="635" as="targetPoint" />
            <Array as="points">
              <mxPoint x="700" y="635" />
            </Array>
          </mxGeometry>
        </mxCell>
        <mxCell id="bbCFtQkSoRX4-R00seL9-79" value="对话文本交互" style="shape=ext;double=1;rounded=0;whiteSpace=wrap;html=1;" vertex="1" parent="1">
          <mxGeometry x="570" y="617.5" width="130" height="40" as="geometry" />
        </mxCell>
        <mxCell id="bbCFtQkSoRX4-R00seL9-84" style="edgeStyle=orthogonalEdgeStyle;rounded=0;orthogonalLoop=1;jettySize=auto;html=1;exitX=0;exitY=0.5;exitDx=0;exitDy=0;entryX=0;entryY=0.5;entryDx=0;entryDy=0;" edge="1" parent="1" source="bbCFtQkSoRX4-R00seL9-47" target="bbCFtQkSoRX4-R00seL9-45">
          <mxGeometry relative="1" as="geometry" />
        </mxCell>
        <mxCell id="bbCFtQkSoRX4-R00seL9-85" style="edgeStyle=orthogonalEdgeStyle;rounded=0;orthogonalLoop=1;jettySize=auto;html=1;exitX=1;exitY=0.5;exitDx=0;exitDy=0;endArrow=none;startFill=0;" edge="1" parent="1" source="bbCFtQkSoRX4-R00seL9-82">
          <mxGeometry relative="1" as="geometry">
            <mxPoint x="430" y="683" as="targetPoint" />
          </mxGeometry>
        </mxCell>
        <mxCell id="bbCFtQkSoRX4-R00seL9-82" value="&lt;font style=&quot;font-size: 11px;&quot;&gt;(安卓端)点击输入&lt;/font&gt;" style="rounded=0;whiteSpace=wrap;html=1;" vertex="1" parent="1">
          <mxGeometry x="320" y="657.5" width="90" height="50" as="geometry" />
        </mxCell>
        <mxCell id="bbCFtQkSoRX4-R00seL9-87" style="edgeStyle=orthogonalEdgeStyle;rounded=0;orthogonalLoop=1;jettySize=auto;html=1;exitX=1;exitY=0.5;exitDx=0;exitDy=0;entryX=0.003;entryY=0.674;entryDx=0;entryDy=0;entryPerimeter=0;" edge="1" parent="1" source="bbCFtQkSoRX4-R00seL9-55" target="bbCFtQkSoRX4-R00seL9-58">
          <mxGeometry relative="1" as="geometry">
            <Array as="points">
              <mxPoint x="700" y="690" />
              <mxPoint x="729" y="690" />
              <mxPoint x="729" y="692" />
            </Array>
          </mxGeometry>
        </mxCell>
        <mxCell id="bbCFtQkSoRX4-R00seL9-88" style="edgeStyle=orthogonalEdgeStyle;rounded=0;orthogonalLoop=1;jettySize=auto;html=1;exitX=1;exitY=0.5;exitDx=0;exitDy=0;entryX=-0.002;entryY=0.333;entryDx=0;entryDy=0;entryPerimeter=0;" edge="1" parent="1">
          <mxGeometry relative="1" as="geometry">
            <mxPoint x="700" y="759.5" as="sourcePoint" />
            <mxPoint x="730" y="760.5" as="targetPoint" />
          </mxGeometry>
        </mxCell>
      </root>
    </mxGraphModel>
  </diagram>
</mxfile>
